<svg width="16" height="16" viewBox="0 0 16 16" fill="none" xmlns="http://www.w3.org/2000/svg">
<path d="M7.99991 1.33398C7.12443 1.33398 6.25752 1.50642 5.44869 1.84145C4.63985 2.17649 3.90492 2.66755 3.28587 3.28661C2.03562 4.53685 1.33324 6.23254 1.33324 8.00065C1.32742 9.54007 1.86044 11.033 2.83991 12.2207L1.50658 13.554C1.41407 13.6477 1.35141 13.7668 1.32649 13.8961C1.30158 14.0254 1.31552 14.1592 1.36658 14.2807C1.42195 14.4006 1.51171 14.5014 1.62448 14.5702C1.73724 14.6391 1.86791 14.6729 1.99991 14.6673H7.99991C9.76802 14.6673 11.4637 13.9649 12.714 12.7147C13.9642 11.4645 14.6666 9.76876 14.6666 8.00065C14.6666 6.23254 13.9642 4.53685 12.714 3.28661C11.4637 2.03636 9.76802 1.33398 7.99991 1.33398ZM7.99991 13.334H3.60658L4.22658 12.714C4.35074 12.5891 4.42044 12.4201 4.42044 12.244C4.42044 12.0679 4.35074 11.8989 4.22658 11.774C3.35363 10.902 2.81003 9.75434 2.68837 8.52651C2.56672 7.29868 2.87454 6.06666 3.5594 5.04033C4.24425 4.01401 5.26377 3.25689 6.44425 2.89797C7.62474 2.53904 8.89315 2.60052 10.0334 3.07193C11.1736 3.54333 12.1151 4.3955 12.6975 5.48325C13.2799 6.57099 13.4672 7.82701 13.2273 9.03732C12.9875 10.2476 12.3354 11.3373 11.3823 12.1208C10.4291 12.9043 9.23375 13.333 7.99991 13.334Z" fill="#0D1523"/>
</svg>
